<svg id="Layer_5" data-name="Layer 5" xmlns="http://www.w3.org/2000/svg" xmlns:xlink="http://www.w3.org/1999/xlink" viewBox="0 0 687 1080"><defs><style>.cls-1{fill:#86a697;stroke:#86a697;}.cls-1,.cls-10,.cls-12,.cls-18,.cls-19,.cls-2,.cls-20,.cls-3,.cls-31,.cls-4,.cls-5,.cls-6{stroke-miterlimit:10;}.cls-2{fill:#65858c;stroke:#65858c;}.cls-3{fill:#84bf04;stroke:#84bf04;}.cls-4{fill:#467302;stroke:#467302;}.cls-5{fill:#022601;stroke:#022601;}.cls-6{fill:#bf9765;stroke:#bf9765;}.cls-7{fill:url(#linear-gradient);}.cls-8{fill:#f0b691;}.cls-10,.cls-9{fill:#1b1435;}.cls-10{stroke:#1b1435;}.cls-11{fill:#e7b191;}.cls-12{fill:#ddd8de;stroke:#ddd8de;}.cls-13{fill:#ac9fa1;}.cls-14{fill:#a0918b;}.cls-15{fill:#bbb0b4;}.cls-16{fill:#928281;}.cls-17{fill:#d0c7c8;}.cls-18,.cls-19,.cls-20,.cls-25,.cls-31,.cls-33{fill:none;}.cls-18,.cls-19,.cls-20{stroke:#b3b1ac;stroke-dasharray:0.5 2;}.cls-18{stroke-width:2px;}.cls-19{stroke-width:4px;}.cls-20{stroke-width:3px;}.cls-21{fill:#a08984;}.cls-22{fill:#a4928e;}.cls-23{fill:#dad6df;}.cls-24{fill:#aa9e9c;}.cls-26{fill:#b6aaac;}.cls-27{fill:#b3b1ac;}.cls-28{fill:#b5b3b8;}.cls-29{fill:#9f918b;}.cls-30{fill:#ada6a3;}.cls-31{stroke:#000;}.cls-32{fill:#8086a9;}.cls-33{opacity:0.38;}</style><linearGradient id="linear-gradient" x1="343.5" y1="769.5" x2="343.5" y2="637.11" gradientUnits="userSpaceOnUse"><stop offset="0" stop-color="#a15f13"/><stop offset="0.4" stop-color="#a15f13" stop-opacity="0.56"/><stop offset="0.81" stop-color="#a15f13" stop-opacity="0.16"/><stop offset="1" stop-color="#a15f13" stop-opacity="0"/></linearGradient></defs><title>white-sitting-me-small</title><polygon class="cls-1" points="687 412.51 687 1077.5 307.5 1077.5 307.5 1079.5 296.5 1079.5 296.5 1077.5 0 1077.5 0 409.49 27.5 396.5 69.5 413.5 98.5 390.5 143.56 397.77 170.17 402.06 197.35 406.44 214.45 409.2 408.17 440.45 446.45 446.62 454.26 447.88 457.92 448.47 466.94 449.93 470.5 450.5 501 437.43 512.5 432.5 687 412.51"/><polygon class="cls-2" points="687 429.53 687 1077.5 307.5 1077.5 307.5 1079.5 296.5 1079.5 296.5 1077.5 0 1077.5 0 429.42 24.5 433.5 71.5 444.5 139.51 456.29 146.5 457.5 150.96 457.84 174.1 459.62 174.11 459.62 176.48 459.81 176.49 459.81 178.08 459.93 190.39 460.88 197.72 461.44 204.97 462 219.08 463.08 219.09 463.08 222.57 463.35 416.3 478.25 444.13 480.39 457.72 481.44 462.69 481.82 479.7 483.13 510.5 485.5 562.5 463.5 641.5 460.5 687 429.53"/><polygon class="cls-3" points="687 564.29 687 1077.5 307.5 1077.5 307.5 706.5 341.18 680.9 354.76 670.57 453.5 595.5 457.66 591.99 469.93 581.62 476.85 575.78 494.66 560.73 511.5 546.5 530.82 541.49 530.88 541.48 538.5 539.5 552.5 531.5 572.5 546.5 590.5 546.5 602.5 554.5 620.5 552.5 634.5 561.5 649.5 554.5 666.5 551.5 675.5 559.5 687 564.29"/><polygon class="cls-4" points="296.5 699.5 296.5 1077.5 0 1077.5 0 513 18.5 531.5 7.5 543.5 18.5 572.5 31.5 564.5 53.5 572.5 62.5 588.5 76.5 610.5 80.5 622.5 115.5 644.5 115.5 653.5 127.5 647.5 137.5 653.5 144.5 662.5 154.4 664.91 154.81 665.01 201.85 676.46 203.5 676.86 217.69 680.32 217.7 680.32 218.55 680.53 218.57 680.53 231.99 683.8 241.24 686.05 273.22 693.83 273.45 693.89 273.46 693.89 290.96 698.15 296.5 699.5"/><polygon class="cls-5" points="687 847.22 687 1077.5 307.5 1077.5 307.5 1079.5 296.5 1079.5 296.5 1077.5 0 1077.5 0 811.18 24.5 832.5 296.5 838.54 307.5 838.79 687 847.22"/><path class="cls-6" d="M687,727.32V1077.5H307.5v2h-11v-2H0V637.11l35.5,6.39,86,26,29,16,2.6-.19h.11l50.12-3.66,1.62-.12,12.87-.94.73-.05h0l12.37-.91,12.45-.91,4.45-.33h0l21.84-1.59L321.89,673l14.81-1.08,18.06-1.32L444,664.05l32.44-2.38,4.2-.3.38,0,11.48-.84L523.17,672l37.17,13.94,7.84,2.94,3.8,1.43h0l1.84.69,12.37,4.64h0l.77.29L620.5,708.5l50,9,13,6Z"/><path class="cls-7" d="M687,727.32v23.11L666.5,733.5l-39,15h-40s-9,1-15,8-12,8-12,8l-33,5h-326l-12-5s-7-11-17-12a122.53,122.53,0,0,1-20-4h-15v-15l-23-6h-24l-16,6-11-15-15-6-18-1-19-8-11-9-.5-.15V637.11l35.5,6.39,86,26,29,16,2.6-.19h.11l50.12-3.66,1.62-.12,12.87-.94.73-.05h0l12.37-.91,12.45-.91,4.45-.33h0l21.84-1.59L321.89,673l14.81-1.08,18.06-1.32L444,664.05l32.44-2.38,4.2-.3.38,0,11.48-.84L523.17,672l37.17,13.94,7.84,2.94,3.8,1.43h0l1.84.69,12.37,4.64h0l.77.29L620.5,708.5l50,9,13,6Z"/><path class="cls-8" d="M365,192.65l4,8.35-2,10a66,66,0,0,1,2,22c-1,12-15,29-15,38v13.59L340,270l-6-1-16-88Z"/><path class="cls-9" d="M172,632.55s-5.5,3-7.5,11-3,9-3,9-6,8-8,15,0,20,0,20l35,58,29,23a159.62,159.62,0,0,0,37,3l36.19.8L261.5,639.5l-5-30Z"/><path class="cls-9" d="M271.06,684h0S177,662,162,653l-1,.07c-2.78,5.44-6.21,10.86-7.52,15.43-2,7,0,20,0,20l35,58L213.12,766,290.61,773Z"/><path class="cls-9" d="M465,620l39,3,10-2,22,5h20l13,6a26.63,26.63,0,0,1,9,12c3,8,6,13,6,18v10s1-5,3,3-3,12-3,12l3,9-11-5h-5s-7-6-11-5-9,5-9,5l-2,5h-6l-29,32-28,17-48,24,8-140Z"/><path class="cls-9" d="M511,644l-57-15-8.32,5.54L438.93,752.8l41.57-5L486,745l28-17,29-32h6l2-5s5-4,9-5,11,5,11,5h5l11,5-3-9a9.54,9.54,0,0,0,2.21-2.93L564,659a50.8,50.8,0,0,0-13-12C543,642,511,644,511,644Z"/><path class="cls-10" d="M549,696l2-5s5-4,9-5,11,5,11,5h1.55L566,683s-13-10-18-11-6,0-6,0H490l-48.62,37.81-2.45,43,41.57-5L486,745l28-17,29-32Z"/><path class="cls-11" d="M520.33,581.67S520,586,514,594a175.61,175.61,0,0,1-14,16l-24.8,22.5L449,572Z"/><path class="cls-12" d="M213,323c14.37-12.58,29.67-16.45,47-24l79-5h30l20,14,26,9,15,6,21,3,9,12,14,19,13,22v11l6,16,14,55,8,56,24,37-11,18-12,16-32,6-14-12,7,68,8,25,1,19-12,26-30,50-19,6-26,14-18,14-39-12-15-14-51-8-26-18-30-26-16-42-8-28,8-16,14,3-5-12-9,3-44-2-17-47V564l5-7-2-17-9-116,13-52,20-13,4-9Z"/><path class="cls-13" d="M202.75,501,223,454s-3,56,0,80,19,82,19,82l74,24,11,4-6,34-82,55-25.5-24.06L197,656Z"/><path class="cls-14" d="M208.5,629.5a29.26,29.26,0,0,1,6-10c4-4,19-16,19-16l8-3v-10h-13s-10-3-14,0-10,14-10,14Z"/><path class="cls-15" d="M204,490s-.5-23.5,2.5-39.5,8-27,8-44-1-18-4-19-12,7-13,17,0,40,0,42,0,19,1,28,3,20,3,20Z"/><polygon class="cls-12" points="250.5 281.5 238.5 307.5 260.5 299.5 339.5 294.5 363.5 294.5 340.5 270.5 325.5 267.5 261.5 276.5 250.5 281.5"/><polygon class="cls-16" points="201.5 587.5 192.5 591.5 164.5 595.5 172.5 611.5 168.26 632.38 204.5 632.5 213.5 632.5 201.5 587.5"/><polygon class="cls-16" points="465 555 470 582 484 594 516 587 490 555 465 555"/><polygon class="cls-17" points="516 517 516 527 490 555 516 587 539 555 516 517"/><polygon class="cls-17" points="148 577 158 594 164 594 172 610 168 632 160 632 143 587 143 564 148 577"/><path class="cls-18" d="M151.21,374a186.14,186.14,0,0,0,18.53,27.74"/><path class="cls-19" d="M168.09,398.3c15.49-18.26,38.25-29,61.45-34.93s47.26-7.45,71-10.44c25.38-3.19,50.71-8.06,76.29-7.56s52,7,71.35,23.75"/><path class="cls-20" d="M453.73,330.78a215.57,215.57,0,0,0-4.55,49.12c.25,11.47,1.43,22.89,2.6,34.29l2.58,25.19"/><path class="cls-21" d="M468,453s23,61,29,69a29,29,0,0,0,14.19,10.18L490,555l-4-6-21,3L452,426l7.7,2.9Z"/><path class="cls-22" d="M445,420s-5-15-13-22-34-18-34-18,0,3,8,8,18,14,18,14,9,11,11,18a101.59,101.59,0,0,0,5.28,13.85S434,434,429,426s-2-7-5-14-6-1-6-1a62,62,0,0,0,3,11c2,5,7,12,9,12s15,10,15,10l4-14Z"/><path class="cls-23" d="M448,517l-5,6-4,23a8.22,8.22,0,0,0,0,9c3,5,21-19,21-19Z"/><path class="cls-16" d="M443.5,523.5l13,19L466.67,564l22.83-9.5s2-3-3-6-12,0-12,0l-8,3s5-5,4-15-6-42-6-42l-7-49,4-10c-1-9-4-9-8.51-9.5s-6.49.5-9.49,5.5-14,2-14,2,13,3,17,6-7,19-4,31,3,37,3,37Z"/><path class="cls-24" d="M168,464a5.64,5.64,0,0,1-6,0c-3-2-9-5-9-5s-4-1-2-4,9,0,9,0,6,2,9,1,1-5,1-5-1-1-1-5a104.16,104.16,0,0,1,1-11s.12,9.89,4.06,14.94S191,459,191,459a11.68,11.68,0,0,0,0,9c2,5,13,22,13,22l-29-16Z"/><polygon class="cls-25" points="446.07 527.26 437.82 552 426 533 438 517 446.07 527.26"/><path class="cls-26" d="M437.83,552l8.25-24.72-3.13-4L439,546A8.08,8.08,0,0,0,437.83,552Z"/><path class="cls-25" d="M397.09,351.46,411,357.74"/><path class="cls-26" d="M396.1,351.74c5,1.37,10,2.82,15,4.5a100.32,100.32,0,0,1,14.46,6.19c4.63,2.49,9.23,5.34,12.92,9.26a33.39,33.39,0,0,1,8.14,13.59l-.28.12a62.81,62.81,0,0,0-10-11.57,81.57,81.57,0,0,0-12-9.32,99.23,99.23,0,0,0-13.81-6.87c-4.76-2-9.65-3.79-14.52-5.61Z"/><path class="cls-16" d="M201,574l-3-35,6-48-12-11-13-16-3-5s-4-2-4,12,3,15,3,15l3,6s-9-5-14-1,0,13,0,13l11,28,7.89,60.87L204,587Z"/><polygon class="cls-27" points="169.52 397.61 169.58 397.86 169.27 397.92 169.23 397.68 169.52 397.61"/><polygon class="cls-27" points="170.02 399.79 170.12 400.27 169.68 400.35 169.61 399.87 170.02 399.79"/><polygon class="cls-27" points="170.48 402.23 170.56 402.72 169.99 402.79 169.94 402.31 170.48 402.23"/><polygon class="cls-27" points="170.86 404.68 170.92 405.17 170.21 405.25 170.17 404.75 170.86 404.68"/><polygon class="cls-27" points="171.15 407.15 171.2 407.64 170.36 407.7 170.33 407.21 171.15 407.15"/><polygon class="cls-27" points="171.37 409.62 171.41 410.12 170.43 410.17 170.42 409.67 171.37 409.62"/><polygon class="cls-27" points="171.54 412.1 171.57 412.6 170.45 412.63 170.45 412.13 171.54 412.1"/><polygon class="cls-27" points="171.66 414.59 171.68 415.08 170.43 415.1 170.44 414.6 171.66 414.59"/><polygon class="cls-27" points="171.74 417.07 171.75 417.56 170.38 417.56 170.39 417.07 171.74 417.07"/><polygon class="cls-27" points="171.8 419.54 171.81 420.04 170.3 420.03 170.32 419.54 171.8 419.54"/><polygon class="cls-27" points="171.84 422.01 171.85 422.5 170.24 422.49 170.25 422 171.84 422.01"/><polygon class="cls-27" points="171.88 424.48 171.89 424.97 170.18 424.97 170.19 424.47 171.88 424.48"/><polygon class="cls-27" points="171.94 426.94 171.95 427.43 170.14 427.44 170.15 426.95 171.94 426.94"/><polygon class="cls-27" points="172.02 429.39 172.04 429.88 170.13 429.93 170.13 429.43 172.02 429.39"/><polygon class="cls-27" points="172.14 431.84 172.17 432.32 170.17 432.41 170.16 431.92 172.14 431.84"/><polygon class="cls-27" points="172.32 434.27 172.36 434.76 170.26 434.9 170.24 434.41 172.32 434.27"/><polygon class="cls-27" points="172.56 436.7 172.62 437.18 170.42 437.4 170.38 436.9 172.56 436.7"/><polygon class="cls-27" points="172.88 439.1 172.95 439.58 170.66 439.89 170.61 439.4 172.88 439.1"/><polygon class="cls-27" points="173.28 441.49 173.38 441.96 171 442.38 170.93 441.89 173.28 441.49"/><polygon class="cls-27" points="173.79 443.86 173.9 444.32 171.44 444.87 171.34 444.38 173.79 443.86"/><polygon class="cls-27" points="174.4 446.21 174.52 446.68 171.96 447.31 171.85 446.82 174.4 446.21"/><polygon class="cls-27" points="175.07 448.53 175.21 448.99 172.55 449.77 172.43 449.28 175.07 448.53"/><polygon class="cls-27" points="175.84 450.82 176 451.27 173.24 452.2 173.1 451.72 175.84 450.82"/><polygon class="cls-27" points="176.69 453.07 176.87 453.52 174.05 454.6 173.88 454.12 176.69 453.07"/><polygon class="cls-27" points="177.61 455.29 177.81 455.73 174.97 456.95 174.78 456.49 177.61 455.29"/><polygon class="cls-27" points="178.61 457.48 178.82 457.91 176.01 459.26 175.79 458.81 178.61 457.48"/><polygon class="cls-27" points="179.67 459.64 179.88 460.07 177.16 461.51 176.92 461.07 179.67 459.64"/><polygon class="cls-27" points="180.78 461.78 181.01 462.2 178.43 463.7 178.17 463.26 180.78 461.78"/><polygon class="cls-27" points="181.95 463.89 182.19 464.3 179.8 465.81 179.52 465.39 181.95 463.89"/><polygon class="cls-27" points="183.2 465.96 183.46 466.37 181.24 467.88 180.94 467.47 183.2 465.96"/><polygon class="cls-27" points="184.5 468.01 184.76 468.41 182.78 469.87 182.46 469.47 184.5 468.01"/><polygon class="cls-27" points="185.86 470.02 186.14 470.42 184.38 471.79 184.05 471.42 185.86 470.02"/><polygon class="cls-27" points="187.27 472.01 187.56 472.41 186.07 473.65 185.73 473.28 187.27 472.01"/><polygon class="cls-27" points="188.72 473.98 189.02 474.37 187.82 475.43 187.46 475.08 188.72 473.98"/><polygon class="cls-27" points="190.22 475.93 190.53 476.31 189.64 477.14 189.27 476.81 190.22 475.93"/><polygon class="cls-27" points="191.75 477.86 192.06 478.24 191.52 478.78 191.14 478.46 191.75 477.86"/><polygon class="cls-27" points="193.37 479.83 193.53 480.03 193.32 480.24 193.12 480.09 193.37 479.83"/><path class="cls-26" d="M368.63,387.08a49.88,49.88,0,0,1,19.73,10.44A71.42,71.42,0,0,1,403,414.82a82,82,0,0,1,8.81,20.69c2,7.17,3.33,14.4,4.6,21.56s2.29,14.29,3.3,21.43,1.81,14.34,2.48,21.54,1.08,14.43,1.22,21.66c.06,3.61.09,7.22,0,10.84s-.32,7.21-.58,10.8l-1,0c-.11-3.59-.26-7.17-.54-10.74s-.56-7.13-.94-10.68c-.77-7.11-1.85-14.18-3.09-21.21s-2.59-14.06-4.08-21.06-2.92-14-4.58-20.93a163.66,163.66,0,0,0-6.19-20.13,191.72,191.72,0,0,0-8.12-18.87,99,99,0,0,0-10.94-17.22A81.5,81.5,0,0,0,368.21,388Z"/><path class="cls-28" d="M218,643s16,39,15,49-1,14-4,11-27.33-58.33-27.33-58.33L204,640Z"/><path class="cls-29" d="M205.82,688.78,217,699l20,24s-3-8,0-21,10-35,10-35l54-6s3,2,9-3l6-5,11-9s10,36,19,43,39,17,39,17a19.56,19.56,0,0,1,9,5c4,4-32,21-32,21l-62,24-4,1,31,23-51-8-56-44Z"/><polygon class="cls-30" points="477.87 652.72 474 677 432 720 354.79 732.79 296 755 327 778 342 792 381 804 399 790 426 776 444 770 486 694 486 675 477.87 652.72"/><polygon class="cls-16" points="202.75 500.97 205 604 189 601 182.89 587 202.75 500.97"/><path class="cls-31" d="M239.67,307l-.67.67"/><path class="cls-26" d="M356.85,288.15a213.4,213.4,0,0,0-30.11-1.1,215.66,215.66,0,0,0-29.91,3,289.26,289.26,0,0,0-29.2,6.9c-9.64,2.69-19.11,5.92-28.59,9.4l-.13-.27a149.07,149.07,0,0,1,27.86-12,175.42,175.42,0,0,1,29.7-6.4,217.29,217.29,0,0,1,30.25-2.09,214.2,214.2,0,0,1,30.17,2.31Z"/><polygon class="cls-32" points="447.06 764.47 482 748 454.36 751.25 447.06 764.47"/><polygon class="cls-10" points="485.5 694.5 447.5 764.5 481.5 747.5 514.5 728.5 485.5 694.5"/><path d="M257.5,258.5l-21-48s-5-26-4-32,0-10,2-18,5-12,5-12-5,2-7,4a73.65,73.65,0,0,0-5,6s2-7,5-10,10-5,10-5-1-4,0-7a66.59,66.59,0,0,1,3-7v4l6-6s11-8,16-10,18-6,25-7,20-2,26,0,22,7,22,7l13,8s6,5,8,9,6,9,7,16-5,16-5,16,2,8,2,10,1,8,0,14a20.2,20.2,0,0,1-5,10l1,10-5,2s-1-7-4-10a10.82,10.82,0,0,0-7-3s-5,2-5,7,7,22,7,22a3.55,3.55,0,0,0,2,3c2,1,4-3,4-3l-3,12-7,13s-5,6-6,8l-3,6-.47,1.71-8.53-1.71-21.24,3-42.76,6Z"/><rect class="cls-33" y="-2" width="687" height="1079.5"/></svg>