<svg id="Layer_5" data-name="Layer 5" xmlns="http://www.w3.org/2000/svg" xmlns:xlink="http://www.w3.org/1999/xlink" viewBox="0 0 1920 1080"><defs><style>.cls-1{fill:#86a697;stroke:#86a697;}.cls-1,.cls-10,.cls-12,.cls-18,.cls-19,.cls-2,.cls-20,.cls-3,.cls-31,.cls-4,.cls-5,.cls-6{stroke-miterlimit:10;}.cls-2{fill:#65858c;stroke:#65858c;}.cls-3{fill:#84bf04;stroke:#84bf04;}.cls-4{fill:#467302;stroke:#467302;}.cls-5{fill:#022601;stroke:#022601;}.cls-6{fill:#bf9765;stroke:#bf9765;}.cls-7{fill:url(#linear-gradient);}.cls-8{fill:#f0b691;}.cls-10,.cls-9{fill:#1b1435;}.cls-10{stroke:#1b1435;}.cls-11{fill:#e7b191;}.cls-12{fill:#ddd8de;stroke:#ddd8de;}.cls-13{fill:#ac9fa1;}.cls-14{fill:#a0918b;}.cls-15{fill:#bbb0b4;}.cls-16{fill:#928281;}.cls-17{fill:#d0c7c8;}.cls-18,.cls-19,.cls-20,.cls-25{fill:none;}.cls-18,.cls-19,.cls-20{stroke:#b3b1ac;stroke-dasharray:0.5 2;}.cls-18{stroke-width:2px;}.cls-19{stroke-width:4px;}.cls-20{stroke-width:3px;}.cls-21{fill:#a08984;}.cls-22{fill:#a4928e;}.cls-23{fill:#dad6df;}.cls-24{fill:#aa9e9c;}.cls-26{fill:#b6aaac;}.cls-27{fill:#b3b1ac;}.cls-28{fill:#b5b3b8;}.cls-29{fill:#9f918b;}.cls-30{fill:#ada6a3;}.cls-31{stroke:#000;}.cls-32{fill:#8086a9;}</style><linearGradient id="linear-gradient" x1="980.1" y1="769.5" x2="980.1" y2="620.5" gradientUnits="userSpaceOnUse"><stop offset="0" stop-color="#a15f13"/><stop offset="0.4" stop-color="#a15f13" stop-opacity="0.56"/><stop offset="0.81" stop-color="#a15f13" stop-opacity="0.16"/><stop offset="1" stop-color="#a15f13" stop-opacity="0"/></linearGradient></defs><title>white-Artboard 1</title><polygon class="cls-1" points="-0.5 469.5 375.5 357.5 433.5 357.5 502.5 374.5 546.5 364.5 591.5 390.5 655.5 413.5 691.5 396.5 733.5 413.5 762.5 390.5 1134.5 450.5 1176.5 432.5 1560.5 388.5 1582.5 413.5 1648.5 413.5 1675.5 430.5 1695.5 448.5 1741.5 427.5 1771.5 427.5 1833.5 454.5 1890.5 459.5 1919.5 421.5 1919.5 1079.5 -0.5 1079.5 -0.5 469.5"/><polygon class="cls-2" points="448.5 495.5 590.5 430.5 640.5 425.5 688.5 433.5 735.5 444.5 810.5 457.5 1174.5 485.5 1226.5 463.5 1305.5 460.5 1377.5 411.5 1403.5 393.5 1430.5 386.5 1462.5 374.5 1540.5 422.5 1582.5 429.5 1707.5 500.5 1707.5 1080 517.67 1080 448.5 495.5"/><path class="cls-3" d="M1920,571l-43.5-42.5-29-10h-15l-15-6h-10l-19-3-6-7h-6l-24-11-9-11h-13l-21-11-23,13a41.72,41.72,0,0,0-11-2c-5,0-18,6-18,6l-13,6-8-4-14,16-26,8-28-4-30,16-8,11-23,4-25,4-19,11-21,5-18,2-6-7-18,8-20,6s-7-11-11-10-18,6-18,6l-12-5-9-8-17,3-15,7-14-9-18,2-12-8h-18l-20-15-14,8-27,7-58,49-146,111v373h948L1920,571"/><polygon class="cls-4" points="1919.5 546.5 1905.5 546.5 1870.5 572.5 1867.5 580.5 1849.5 576.5 1842.5 586.5 1839.5 609.5 1841.5 617.5 1832.5 625.5 1826.5 621.5 1809.5 625.5 1794.5 628.5 1772.5 628.5 1753.5 636.5 1743.5 641.5 1737.5 633.5 1707.5 626.5 1697.5 633.5 1686.5 632.5 1690.5 647.5 1671.5 652.5 1660.5 658.5 1646.5 658.5 1628.5 662.5 1616.5 659.5 1603.5 662.5 1583.5 657.5 1587.5 671.5 1548.5 684.5 1535.5 673.5 1514.5 668.5 1497.5 675.5 1477.5 673.5 1461.5 687.5 1430.5 705.5 1418.5 724.5 1463.5 817.5 1463.5 1080 1919.5 1079.5 1919.5 546.5"/><polygon class="cls-4" points="0.5 315.5 24.5 325.5 32.5 338.5 45.5 326.5 64.5 326.5 81.5 332.5 101.5 319.5 119.5 322.5 132.5 335.5 179.5 326.5 193.5 315.5 226.5 329.5 276.5 338.5 312.5 366.5 345.5 366.5 359.5 379.5 363.5 385.5 371.5 394.5 382.5 389.5 419.5 394.5 435.5 408.5 451.5 411.5 454.5 416.5 459.5 412.5 470.5 413.5 484.5 421.5 499.5 415.5 508.5 417.5 534.5 409.5 538.5 421.5 546.5 429.5 543.5 442.5 530.5 451.5 536.5 465.5 579.5 473.5 597.5 473.5 616.5 480.5 643.5 490.5 661.5 510.5 682.5 531.5 671.5 543.5 682.5 572.5 695.5 564.5 717.5 572.5 726.5 588.5 740.5 610.5 744.5 622.5 779.5 644.5 779.5 653.5 791.5 647.5 801.5 653.5 808.5 662.5 960.5 699.5 960.5 1080 -0.5 1079.5 0.5 315.5"/><path class="cls-5" d="M0,390.1l33.5,6.4,21,19,19,18h33l24,21v42l14,43,24,16h64l24,28s26,35,29,34,61,7,61,7l56,9,46,10,50,54,82,41,108,94,720,16,110-28,25-34,18-12h27l17,7,45-16,18-21,33-9,43,3,59-20,49-33,33-7,34.5-34.91-.5,435.91H-.5Z"/><polygon class="cls-6" points="0.5 860.5 3.5 863.5 7.5 863.5 11.5 860.5 15.5 861.5 22.5 856.5 27.5 851.5 34.5 853.5 44.5 851.5 53.5 851.5 62.5 848.5 64.5 844.5 74.5 844.5 78.5 847.5 90.5 847.5 92.5 841.5 99.5 835.5 108.5 839.5 113.5 839.5 121.5 843.5 131.5 842.5 141.5 839.5 146.5 840.5 151.5 835.5 164.5 830.5 169.5 833.5 182.5 825.5 207.5 818.5 210.5 813.5 227.5 806.5 232.5 802.5 244.5 798.5 258.5 779.5 285.5 762.5 292.5 762.5 314.5 745.5 336.5 739.5 341.5 732.5 360.5 728.5 367.5 723.5 388.5 719.5 395.5 713.5 407.5 706.5 423.5 687.5 428.5 687.5 435.5 680.5 460.5 677.5 477.5 662.5 489.5 658.5 496.5 649.5 511.5 646.5 530.5 636.5 539.5 636.5 560.5 620.5 563.5 617.5 602.5 628.5 617.5 628.5 645.5 637.5 649.5 634.5 699.5 643.5 785.5 669.5 814.5 685.5 1156.5 660.5 1284.5 708.5 1334.5 717.5 1347.5 723.5 1358.5 735.5 1386.5 748.5 1415.5 753.5 1447.5 770.5 1457.5 782.5 1484.5 790.5 1494.5 802.5 1506.5 800.5 1525.5 803.5 1529.5 800.5 1560.5 801.5 1563.5 805.5 1580.5 805.5 1586.5 808.5 1610.5 804.5 1615.5 805.5 1628.5 805.5 1643.5 811.5 1648.5 808.5 1680.5 814.5 1694.5 812.5 1703.5 817.5 1710.5 816.5 1714.5 811.5 1720.5 811.5 1746.5 816.5 1750.5 812.5 1761.5 815.5 1777.5 810.5 1786.5 812.5 1794.5 807.5 1801.5 807.5 1801.5 809.5 1811.5 808.5 1824.5 814.5 1847.5 812.5 1889.5 816.5 1894.5 812.5 1919.5 813.5 1919.5 1079.5 -0.5 1079.5 0.5 860.5"/><path class="cls-7" d="M571.55,629l15,11.5,6-8,5,20,12,19h33l9,19,13,4,11,9,19,8,18,1,15,6,11,15,16-6h24l23,6v15h15a122.53,122.53,0,0,0,20,4c10,1,17,12,17,12l12,5h326l33-5s6-1,12-8,15-8,15-8h40l39-15,23,19,46.21-1.72-13.21-2.28-28-13-11-12-13-6-50-9-128-48-342,25-29-16-86-26-50-9-4,3-28-9h-15l-42-8Z"/><path class="cls-8" d="M1029,192.65l4,8.35-2,10a66,66,0,0,1,2,22c-1,12-15,29-15,38v13.59L1004,270l-6-1-16-88Z"/><path class="cls-9" d="M836,632.55s-5.5,3-7.5,11-3,9-3,9-6,8-8,15,0,20,0,20l35,58,29,23a159.62,159.62,0,0,0,37,3l36.19.8L925.5,639.5l-5-30Z"/><path class="cls-9" d="M935.06,684h0S841,662,826,653l-1,.07c-2.78,5.44-6.21,10.86-7.52,15.43-2,7,0,20,0,20l35,58L877.12,766,954.61,773Z"/><path class="cls-9" d="M1129,620l39,3,10-2,22,5h20l13,6a26.63,26.63,0,0,1,9,12c3,8,6,13,6,18v10s1-5,3,3-3,12-3,12l3,9-11-5h-5s-7-6-11-5-9,5-9,5l-2,5h-6l-29,32-28,17-48,24,8-140Z"/><path class="cls-9" d="M1175,644l-57-15-8.32,5.54-6.75,118.26,41.57-5L1150,745l28-17,29-32h6l2-5s5-4,9-5,11,5,11,5h5l11,5-3-9a9.54,9.54,0,0,0,2.21-2.93L1228,659a50.8,50.8,0,0,0-13-12C1207,642,1175,644,1175,644Z"/><path class="cls-10" d="M1213,696l2-5s5-4,9-5,11,5,11,5h1.55l-6.55-8s-13-10-18-11-6,0-6,0h-52l-48.62,37.81-2.45,43,41.57-5L1150,745l28-17,29-32Z"/><path class="cls-11" d="M1184.33,581.67S1184,586,1178,594a175.61,175.61,0,0,1-14,16l-24.8,22.5L1113,572Z"/><path class="cls-12" d="M877,323c14.37-12.58,29.67-16.45,47-24l79-5h30l20,14,26,9,15,6,21,3,9,12,14,19,13,22v11l6,16,14,55,8,56,24,37-11,18-12,16-32,6-14-12,7,68,8,25,1,19-12,26-30,50-19,6-26,14-18,14-39-12-15-14-51-8-26-18-30-26-16-42-8-28,8-16,14,3-5-12-9,3-44-2-17-47V564l5-7-2-17-9-116,13-52,20-13,4-9Z"/><path class="cls-13" d="M866.75,501,887,454s-3,56,0,80,19,82,19,82l74,24,11,4-6,34-82,55-25.5-24.06L861,656Z"/><path class="cls-14" d="M872.5,629.5a29.26,29.26,0,0,1,6-10c4-4,19-16,19-16l8-3v-10h-13s-10-3-14,0-10,14-10,14Z"/><path class="cls-15" d="M868,490s-.5-23.5,2.5-39.5,8-27,8-44-1-18-4-19-12,7-13,17,0,40,0,42,0,19,1,28,3,20,3,20Z"/><polygon class="cls-12" points="914.5 281.5 902.5 307.5 924.5 299.5 1003.5 294.5 1027.5 294.5 1004.5 270.5 989.5 267.5 925.5 276.5 914.5 281.5"/><polygon class="cls-16" points="865.5 587.5 856.5 591.5 828.5 595.5 836.5 611.5 832.26 632.38 868.5 632.5 877.5 632.5 865.5 587.5"/><polygon class="cls-16" points="1129 555 1134 582 1148 594 1180 587 1154 555 1129 555"/><polygon class="cls-17" points="1180 517 1180 527 1154 555 1180 587 1203 555 1180 517"/><polygon class="cls-17" points="812 577 822 594 828 594 836 610 832 632 824 632 807 587 807 564 812 577"/><path class="cls-18" d="M815.21,374a186.14,186.14,0,0,0,18.53,27.74"/><path class="cls-19" d="M832.09,398.3c15.49-18.26,38.25-29,61.45-34.93s47.26-7.45,71-10.44c25.38-3.19,50.71-8.06,76.29-7.56s52.05,7,71.35,23.75"/><path class="cls-20" d="M1117.73,330.78a215.57,215.57,0,0,0-4.55,49.12c.25,11.47,1.43,22.89,2.6,34.29l2.58,25.19"/><path class="cls-21" d="M1132,453s23,61,29,69a29,29,0,0,0,14.19,10.18L1154,555l-4-6-21,3-13-126,7.7,2.9Z"/><path class="cls-22" d="M1109,420s-5-15-13-22-34-18-34-18,0,3,8,8,18,14,18,14,9,11,11,18a101.59,101.59,0,0,0,5.28,13.85S1098,434,1093,426s-2-7-5-14-6-1-6-1a62,62,0,0,0,3,11c2,5,7,12,9,12s15,10,15,10l4-14Z"/><path class="cls-23" d="M1112,517l-5,6-4,23a8.22,8.22,0,0,0,0,9c3,5,21-19,21-19Z"/><path class="cls-16" d="M1107.5,523.5l13,19,10.17,21.5,22.83-9.5s2-3-3-6-12,0-12,0l-8,3s5-5,4-15-6-42-6-42l-7-49,4-10c-1-9-4-9-8.51-9.5s-6.49.5-9.49,5.5-14,2-14,2,13,3,17,6-7,19-4,31,3,37,3,37Z"/><path class="cls-24" d="M832,464a5.64,5.64,0,0,1-6,0c-3-2-9-5-9-5s-4-1-2-4,9,0,9,0,6,2,9,1,1-5,1-5-1-1-1-5a104.16,104.16,0,0,1,1-11s.12,9.89,4.06,14.94S855,459,855,459a11.68,11.68,0,0,0,0,9c2,5,13,22,13,22l-29-16Z"/><polygon class="cls-25" points="1110.08 527.26 1101.82 552 1090 533 1102 517 1110.08 527.26"/><path class="cls-26" d="M1101.83,552l8.25-24.72-3.13-4L1103,546A8.08,8.08,0,0,0,1101.83,552Z"/><path class="cls-26" d="M1061.09,351.46l13.88,6.28"/><path class="cls-26" d="M1060.1,351.74c5,1.37,10,2.82,15,4.5a100.32,100.32,0,0,1,14.46,6.19c4.63,2.49,9.23,5.34,12.92,9.26a33.39,33.39,0,0,1,8.14,13.59l-.28.12a62.81,62.81,0,0,0-10-11.57,81.57,81.57,0,0,0-12-9.32,99.23,99.23,0,0,0-13.81-6.87c-4.76-2-9.65-3.79-14.52-5.61Z"/><path class="cls-16" d="M865,574l-3-35,6-48-12-11-13-16-3-5s-4-2-4,12,3,15,3,15l3,6s-9-5-14-1,0,13,0,13l11,28,7.89,60.87L868,587Z"/><polygon class="cls-27" points="833.52 397.61 833.58 397.86 833.27 397.92 833.23 397.68 833.52 397.61"/><polygon class="cls-27" points="834.02 399.79 834.12 400.27 833.68 400.35 833.61 399.87 834.02 399.79"/><polygon class="cls-27" points="834.48 402.23 834.57 402.72 833.99 402.79 833.94 402.31 834.48 402.23"/><polygon class="cls-27" points="834.86 404.68 834.92 405.17 834.21 405.25 834.17 404.75 834.86 404.68"/><polygon class="cls-27" points="835.15 407.15 835.2 407.64 834.36 407.7 834.33 407.21 835.15 407.15"/><polygon class="cls-27" points="835.37 409.62 835.41 410.12 834.43 410.17 834.42 409.67 835.37 409.62"/><polygon class="cls-27" points="835.54 412.1 835.57 412.6 834.45 412.63 834.45 412.13 835.54 412.1"/><polygon class="cls-27" points="835.66 414.59 835.68 415.08 834.43 415.1 834.44 414.6 835.66 414.59"/><polygon class="cls-27" points="835.74 417.07 835.75 417.56 834.38 417.56 834.39 417.07 835.74 417.07"/><polygon class="cls-27" points="835.8 419.54 835.81 420.04 834.3 420.03 834.32 419.54 835.8 419.54"/><polygon class="cls-27" points="835.84 422.01 835.85 422.5 834.24 422.49 834.25 422 835.84 422.01"/><polygon class="cls-27" points="835.88 424.48 835.89 424.97 834.18 424.97 834.19 424.47 835.88 424.48"/><polygon class="cls-27" points="835.94 426.94 835.95 427.43 834.14 427.44 834.15 426.95 835.94 426.94"/><polygon class="cls-27" points="836.02 429.39 836.04 429.88 834.13 429.93 834.13 429.43 836.02 429.39"/><polygon class="cls-27" points="836.14 431.84 836.17 432.32 834.17 432.41 834.15 431.92 836.14 431.84"/><polygon class="cls-27" points="836.32 434.27 836.36 434.76 834.26 434.9 834.24 434.41 836.32 434.27"/><polygon class="cls-27" points="836.56 436.7 836.62 437.18 834.42 437.4 834.38 436.9 836.56 436.7"/><polygon class="cls-27" points="836.88 439.1 836.95 439.58 834.66 439.89 834.61 439.4 836.88 439.1"/><polygon class="cls-27" points="837.28 441.49 837.38 441.96 835 442.38 834.93 441.89 837.28 441.49"/><polygon class="cls-27" points="837.79 443.86 837.9 444.32 835.44 444.87 835.34 444.38 837.79 443.86"/><polygon class="cls-27" points="838.39 446.21 838.52 446.68 835.96 447.31 835.85 446.82 838.39 446.21"/><polygon class="cls-27" points="839.07 448.53 839.21 448.99 836.55 449.77 836.42 449.28 839.07 448.53"/><polygon class="cls-27" points="839.84 450.82 840 451.27 837.24 452.2 837.1 451.72 839.84 450.82"/><polygon class="cls-27" points="840.69 453.07 840.87 453.52 838.05 454.6 837.88 454.12 840.69 453.07"/><polygon class="cls-27" points="841.61 455.29 841.81 455.73 838.97 456.95 838.78 456.49 841.61 455.29"/><polygon class="cls-27" points="842.61 457.48 842.82 457.91 840.01 459.26 839.79 458.81 842.61 457.48"/><polygon class="cls-27" points="843.67 459.64 843.88 460.07 841.16 461.51 840.92 461.07 843.67 459.64"/><polygon class="cls-27" points="844.78 461.78 845.01 462.2 842.43 463.7 842.17 463.26 844.78 461.78"/><polygon class="cls-27" points="845.95 463.89 846.19 464.3 843.8 465.81 843.52 465.39 845.95 463.89"/><polygon class="cls-27" points="847.2 465.96 847.46 466.37 845.24 467.88 844.94 467.47 847.2 465.96"/><polygon class="cls-27" points="848.5 468.01 848.76 468.41 846.78 469.87 846.46 469.47 848.5 468.01"/><polygon class="cls-27" points="849.86 470.02 850.14 470.42 848.38 471.79 848.05 471.42 849.86 470.02"/><polygon class="cls-27" points="851.27 472.01 851.56 472.41 850.07 473.65 849.73 473.28 851.27 472.01"/><polygon class="cls-27" points="852.73 473.98 853.02 474.37 851.82 475.43 851.46 475.08 852.73 473.98"/><polygon class="cls-27" points="854.22 475.93 854.52 476.31 853.64 477.14 853.27 476.81 854.22 475.93"/><polygon class="cls-27" points="855.75 477.86 856.06 478.24 855.52 478.78 855.14 478.46 855.75 477.86"/><polygon class="cls-27" points="857.37 479.83 857.53 480.03 857.32 480.24 857.12 480.09 857.37 479.83"/><path class="cls-26" d="M1032.63,387.08a49.88,49.88,0,0,1,19.73,10.44,71.42,71.42,0,0,1,14.64,17.3,82,82,0,0,1,8.81,20.69c2,7.17,3.33,14.4,4.6,21.56s2.29,14.29,3.3,21.43,1.81,14.34,2.48,21.54,1.08,14.43,1.22,21.66c.06,3.61.09,7.22,0,10.84s-.32,7.21-.58,10.8l-1,0c-.11-3.59-.26-7.17-.54-10.74s-.56-7.13-.94-10.68c-.77-7.11-1.85-14.18-3.09-21.21s-2.59-14.06-4.08-21.06-2.92-14-4.58-20.93a163.66,163.66,0,0,0-6.19-20.13,191.72,191.72,0,0,0-8.12-18.87,99,99,0,0,0-10.94-17.22,81.5,81.5,0,0,0-15.12-14.5Z"/><path class="cls-28" d="M882,643s16,39,15,49-1,14-4,11-27.33-58.33-27.33-58.33L868,640Z"/><path class="cls-29" d="M869.82,688.78,881,699l20,24s-3-8,0-21,10-35,10-35l54-6s3,2,9-3l6-5,11-9s10,36,19,43,39,17,39,17a19.56,19.56,0,0,1,9,5c4,4-32,21-32,21l-62,24-4,1,31,23-51-8-56-44Z"/><polygon class="cls-30" points="1141.87 652.72 1138 677 1096 720 1018.79 732.79 960 755 991 778 1006 792 1045 804 1063 790 1090 776 1108 770 1150 694 1150 675 1141.87 652.72"/><polygon class="cls-16" points="866.75 500.97 869 604 853 601 846.89 587 866.75 500.97"/><path class="cls-31" d="M903.67,307l-.67.67"/><path class="cls-26" d="M1020.85,288.15a213.4,213.4,0,0,0-30.11-1.1,215.66,215.66,0,0,0-29.91,3,289.26,289.26,0,0,0-29.2,6.9c-9.64,2.69-19.11,5.92-28.59,9.4l-.13-.27a149.07,149.07,0,0,1,27.86-12,175.42,175.42,0,0,1,29.7-6.4,217.29,217.29,0,0,1,30.25-2.09,214.2,214.2,0,0,1,30.17,2.31Z"/><polygon class="cls-32" points="1111.06 764.47 1146 748 1118.36 751.25 1111.06 764.47"/><polygon class="cls-10" points="1149.5 694.5 1111.5 764.5 1145.5 747.5 1178.5 728.5 1149.5 694.5"/><path d="M921.5,258.5l-21-48s-5-26-4-32,0-10,2-18,5-12,5-12-5,2-7,4a73.65,73.65,0,0,0-5,6s2-7,5-10,10-5,10-5-1-4,0-7a66.59,66.59,0,0,1,3-7v4l6-6s11-8,16-10,18-6,25-7,20-2,26,0,22,7,22,7l13,8s6,5,8,9,6,9,7,16-5,16-5,16,2,8,2,10,1,8,0,14a20.2,20.2,0,0,1-5,10l1,10-5,2s-1-7-4-10a10.82,10.82,0,0,0-7-3s-5,2-5,7,7,22,7,22a3.55,3.55,0,0,0,2,3c2,1,4-3,4-3l-3,12-7,13s-5,6-6,8l-3,6-.47,1.71-8.53-1.71-21.24,3-42.76,6"/></svg>